<?xml version="1.0" standalone="no"?><!DOCTYPE svg PUBLIC "-//W3C//DTD SVG 1.1//EN" "http://www.w3.org/Graphics/SVG/1.1/DTD/svg11.dtd"><svg t="1605179548857" class="icon" viewBox="0 0 1024 1024" version="1.1" xmlns="http://www.w3.org/2000/svg" p-id="2424" xmlns:xlink="http://www.w3.org/1999/xlink" width="200" height="200"><defs><style type="text/css"></style></defs><path d="M365.2 473.2H173.5c-60.1 0-108.6-48.6-108.6-108.6V172.9c0-60.1 48.6-108.6 108.6-108.6h191.7c60.1 0 108.6 48.6 108.6 108.6v191.7c0.1 60-48.5 108.6-108.6 108.6zM173.5 128.1c-24.3 0-44.7 20.4-44.7 44.7v191.7c0 24.3 20.4 44.7 44.7 44.7h191.7c24.3 0 44.7-20.4 44.7-44.7V172.9c0-24.3-20.4-44.7-44.7-44.7H173.5zM850.9 473.2H659.2c-60.1 0-108.6-48.6-108.6-108.6V172.9c0-60.1 48.6-108.6 108.6-108.6h191.7c60.1 0 108.6 48.6 108.6 108.6v191.7c0 60-48.6 108.6-108.6 108.6zM659.2 128.1c-24.3 0-44.7 20.4-44.7 44.7v191.7c0 24.3 20.4 44.7 44.7 44.7h191.7c24.3 0 44.7-20.4 44.7-44.7V172.9c0-24.3-20.5-44.7-44.7-44.7H659.2zM365.2 958.8H173.5c-60.1 0-108.6-48.6-108.6-108.6V658.5c0-60.1 48.6-108.6 108.6-108.6h191.7c60.1 0 108.6 48.6 108.6 108.6v191.7c0.1 60.1-48.5 108.6-108.6 108.6z m-191.7-345c-24.3 0-44.7 20.4-44.7 44.7v191.7c0 24.3 20.4 44.7 44.7 44.7h191.7c24.3 0 44.7-20.4 44.7-44.7V658.5c0-24.3-20.4-44.7-44.7-44.7H173.5zM755 958.8c-112.5 0-204.5-92-204.5-204.5s92-204.5 204.5-204.5 204.5 92 204.5 204.5-92 204.5-204.5 204.5z m0-345c-78 0-140.6 62.6-140.6 140.6S677.1 894.9 755 894.9c78 0 140.6-62.6 140.6-140.6S833 613.8 755 613.8z m0 0" fill="#d81e06" p-id="2425"></path><path d="M905.5 950.1l-46.7-46.7c-12.4-12.4-12.4-32.8 0-45.2 12.4-12.4 32.8-12.4 45.2 0l46.7 46.7c12.4 12.4 12.4 32.8 0 45.2-12.4 12.4-32.7 12.4-45.2 0z" fill="#d81e06" p-id="2426"></path></svg>