<?xml version="1.0" standalone="no"?><!DOCTYPE svg PUBLIC "-//W3C//DTD SVG 1.1//EN" "http://www.w3.org/Graphics/SVG/1.1/DTD/svg11.dtd"><svg t="1605179579811" class="icon" viewBox="0 0 1024 1024" version="1.1" xmlns="http://www.w3.org/2000/svg" p-id="3031" xmlns:xlink="http://www.w3.org/1999/xlink" width="200" height="200"><defs><style type="text/css"></style></defs><path d="M891 353.4l-216.3-31.1L577.9 128c-28.2-56.7-109.4-56.7-137.6 0l-96.7 194.2-216.4 31.1c-63 9-88.3 86.1-42.5 130.3l156.5 151.2-36.9 213.4c-11 62.3 55 109.8 111.3 80.6L509.1 828l193.6 100.9c56.2 29.3 122.2-18.2 111.3-80.6l-36.9-213.4 156.5-151.2c45.7-44.1 20.4-121.2-42.6-130.3z m-7.4 78.9L713.5 596.7c-8.5 8.2-12.4 20.1-10.4 31.8l40.1 232.1c0.7 3.8-3.6 6.9-7.4 4.9L525.7 755.9c-10.4-5.4-22.8-5.4-33.2 0L282.3 865.4c-3.8 2-8-1.1-7.4-4.8L315 628.4c2-11.7-1.9-23.6-10.4-31.8l-170-164.3c-2.8-2.7-1.3-7.4 2.8-8l235-33.8c11.7-1.7 21.8-9 27-19.5l105.1-211.1c1.8-3.7 7.2-3.7 9 0L618.7 371c5.2 10.5 15.3 17.8 27 19.5l235 33.8c4.1 0.6 5.7 5.3 2.9 8z m-231.9 65l-59.8 57.8c-6.4 6.2-9.3 15.1-7.8 23.8l14.7 85.3c1.6 9.5 8.2 17.4 17.2 20.7 9 3.3 19.2 1.6 26.6-4.5 7.4-6.1 10.9-15.8 9.3-25.2l-12.3-71.4 49.6-48c10.7-10.3 10.9-27.3 0.6-38-10.4-10.5-27.5-10.8-38.1-0.5z" fill="#999999" p-id="3032"></path></svg>