<?xml version="1.0" standalone="no"?><!DOCTYPE svg PUBLIC "-//W3C//DTD SVG 1.1//EN" "http://www.w3.org/Graphics/SVG/1.1/DTD/svg11.dtd"><svg t="1605179255065" class="icon" viewBox="0 0 1024 1024" version="1.1" xmlns="http://www.w3.org/2000/svg" p-id="2018" xmlns:xlink="http://www.w3.org/1999/xlink" width="200" height="200"><defs><style type="text/css"></style></defs><path d="M580.5 684.6h-88.7c-1.1 0-2 0.9-2 2v205.7h92.7V686.6c0-1.1-0.9-2-2-2z m323.2-307.8l-340-293.2c-31.8-27.4-78.8-27.4-110.6 0l-340 293.1c-18.9 16.2-29.7 40-29.7 65v429.8c0 47.2 38.1 85.5 85 85.5h680c46.9 0 85-38.3 85-85.5V441.7c0-25-10.9-48.7-29.7-64.9z m-33.7 489c0 7.4-2.9 14.6-8.1 19.8-5.2 5.3-12.3 8.2-19.7 8.2h-667c-15.3 0-27.8-12.5-27.8-28V443c0-8.2 3.6-16 9.7-21.3l333.5-288.4c10.4-9 25.7-9 36.1 0l333.5 288.4c6.2 5.3 9.7 13.1 9.7 21.3v422.8z" fill="#d81e06" p-id="2019"></path></svg>