<?xml version="1.0" standalone="no"?><!DOCTYPE svg PUBLIC "-//W3C//DTD SVG 1.1//EN" "http://www.w3.org/Graphics/SVG/1.1/DTD/svg11.dtd"><svg t="1605179569454" class="icon" viewBox="0 0 1024 1024" version="1.1" xmlns="http://www.w3.org/2000/svg" p-id="2828" xmlns:xlink="http://www.w3.org/1999/xlink" width="200" height="200"><defs><style type="text/css"></style></defs><path d="M392.2 839.6c-18.6-10.9-41.6-10.9-60.1 0-18.6 10.9-29.8 31-29.4 52.5 0.6 32.4 27.1 58.4 59.5 58.4s58.8-26 59.5-58.4c0.3-21.5-10.9-41.6-29.5-52.5z m475.7 0c-18.6-10.9-41.6-10.9-60.1 0-18.6 10.9-29.8 31-29.4 52.5 0.6 32.4 27.1 58.4 59.5 58.4s58.8-26 59.5-58.4c0.3-21.5-10.9-41.6-29.5-52.5zM934 299.1c-19.8-25.1-49.8-39.9-81.7-39.9h-463c-2 0-4 0.2-6 0.5H282.1c-2.3 0-4.5 0.2-6.7 0.7l-8.4-70.7c-10.2-48.7-53.1-84.2-102-84.2H99c-18.8 0-34.3 16.2-34.3 35.5 0 19.2 15.5 34.9 34.3 34.9h66c16.5 0 30.9 11.8 34.3 27.1l56.3 473.4c10.2 48.7 53.1 84.2 102 84.2h464c48.8 0 90.8-33.9 102.4-85.1l30.3-286.4c6.9-31.6-0.6-64.5-20.3-90z m-47.7 76.6L856 662.1c-3.2 16.4-17.6 28.2-34.3 28.1H357.6c-16.5 0-31-11.8-34.3-27.1l-39.8-334.2h103.3c0.8 0.1 1.6 0.1 2.4 0.1h463.1c10.8 0.1 21 5.1 27.6 13.8 6.9 8.8 9.3 20.2 6.4 32.9z m-160.7 58H449.1c-19.1 0-34.6 15.5-34.6 34.6s15.5 34.6 34.6 34.6h276.6c19.1 0 34.6-15.5 34.6-34.6s-15.6-34.6-34.7-34.6z" fill="#999999" p-id="2829"></path></svg>